<?xml version="1.0" encoding="UTF-8"?>
<svg id="Layer_2" data-name="Layer 2" xmlns="http://www.w3.org/2000/svg" viewBox="0 0 799.27 866.96">
  <defs>
    <style>
      .cls-1 {
        opacity: .21;
      }
    </style>
  </defs>
  <g id="Layer_1-2" data-name="Layer 1">
    <g>
      <g class="cls-1">
        <path d="M404.22,554.63l-9.68-3.94-168.3-70.37s-3.33-1.33-3.53-5.22v150.27c0,1.95,1.18,3.69,2.97,4.46l573.59,237.14v-151.04l-395.05-161.29Z"/>
      </g>
      <path class="cls-1" d="M222.69,474.97v.1c.05,2.1,1.23,4.2,3.53,5.22l168.3,70.37,182.08-74.57v-151.25s-350.38,144.84-350.38,144.84c-.05,0-.1.05-.15.05-.1.05-.15.1-.21.1-.21.1-.67.36-1.18.77l-.62.62c-.21.21-.41.51-.62.82-.1.15-.21.36-.26.56-.15.31-.31.67-.36,1.02-.1.41-.16.82-.16,1.33Z"/>
      <g class="cls-1">
        <path d="M0,391.07v151.04s573.59-237.14,573.59-237.14c1.79-.77,2.97-2.51,2.97-4.46v-150.27c-.21,3.89-3.53,5.22-3.53,5.22l-168.3,70.37-9.68,3.94L0,391.07Z"/>
      </g>
      <path class="cls-1" d="M576.57,150.12v.1c-.05,2.1-1.23,4.2-3.53,5.22l-168.3,70.37-182.08-74.57V0l350.38,144.84c.05,0,.1.05.15.05.1.05.15.1.21.1.21.1.67.36,1.18.77l.62.62c.21.21.41.51.62.82.1.15.21.36.26.56.15.31.31.67.36,1.02.1.41.16.82.16,1.33Z"/>
    </g>
  </g>
</svg>
